<svg width="1080" height="1080" viewBox="0 0 1080 1080" fill="none" xmlns="http://www.w3.org/2000/svg">
<rect width="1080" height="1080" fill="url(#paint0_linear_65_5895)"/>
<path d="M466.786 467.701C501.528 463.707 535.591 454.58 567.674 440.668C566.397 406.147 569.612 371.277 577.62 336.927C527.487 371.207 466.763 387.446 406.243 382.845C367.657 379.931 329.171 368.539 293.505 347.947L250.289 422.799C303.321 453.418 361.07 468.694 418.381 469.946C434.585 470.317 450.74 469.565 466.786 467.701Z" fill="white"/>
<path d="M612.872 466.768C616.904 501.532 626.031 535.594 639.921 567.716C674.464 566.401 709.37 569.639 743.7 577.681C709.42 527.548 693.142 466.804 697.764 406.246C700.659 367.699 712.071 329.177 732.664 293.509L657.812 250.293C627.194 303.325 611.917 361.075 610.664 418.387C610.291 434.589 611.045 450.743 612.872 466.768Z" fill="white"/>
<path d="M662.228 610.726C646.025 610.352 629.872 611.106 613.846 612.933C579.105 616.927 545.042 626.054 512.957 639.965C514.234 674.486 510.997 709.395 502.953 743.724C553.064 709.48 613.774 693.182 674.33 697.804C712.916 700.72 751.399 712.11 787.104 732.724L830.32 657.872C777.287 627.254 719.54 611.976 662.228 610.726Z" fill="white"/>
<path d="M467.691 613.846C463.659 579.082 454.549 545.078 440.658 512.958C406.137 514.235 371.268 511.018 336.915 503.011C371.159 553.123 387.421 613.809 382.821 674.329C379.903 712.917 368.492 751.437 347.899 787.105L422.751 830.321C453.369 777.288 468.624 719.577 469.877 662.265C470.25 646.063 469.516 629.87 467.691 613.846Z" fill="white"/>
<defs>
<linearGradient id="paint0_linear_65_5895" x1="1.60933e-05" y1="1080" x2="1240.04" y2="862.554" gradientUnits="userSpaceOnUse">
<stop stop-color="#2AFADF"/>
<stop offset="1" stop-color="#4C83FF"/>
</linearGradient>
</defs>
</svg>
